<svg xmlns="http://www.w3.org/2000/svg" viewBox="0 0 244.7 46.4"><defs><style>.cls-1{fill:#2c3c45;}.cls-2{fill:#4088e6;}.cls-3{fill:#fff;}</style></defs><title>smartsupp-logo-nopadding</title><g id="Vrstva_2" data-name="Vrstva 2"><g id="Layer_1" data-name="Layer 1"><path class="cls-1" d="M8.7,0H24.1l.1.1V6.3l-.1.1H9.8c-1.6,0-2.6.5-3.1,1.6a2.66,2.66,0,0,0-.3,1.2,2.73,2.73,0,0,0,2.2,2.7,1.27,1.27,0,0,1,.6.1h7.7a12.14,12.14,0,0,1,10.9,6.2,12,12,0,0,1,1.5,5.2v1.4a11.73,11.73,0,0,1-3.5,7.8c-2.6,2.3-5.2,3.5-7.8,3.5H.1L0,36H0V29.7l.1-.1h17c2.6,0,4.5-1.3,5.6-4a7.77,7.77,0,0,0,.2-1.6,5.39,5.39,0,0,0-3.3-5.1,4.68,4.68,0,0,0-2.6-.5H9.1a9,9,0,0,1-7.6-4.2A8.56,8.56,0,0,1,.1,9.6V8.7A8.91,8.91,0,0,1,2.5,2.9,8.72,8.72,0,0,1,8.7,0Z"/><path class="cls-1" d="M43,11.9h.9a12,12,0,0,1,8.4,3.8,11.62,11.62,0,0,1,8.4-3.8h.9A12,12,0,0,1,70,15.7a12.79,12.79,0,0,1,2.8,5.1,18.66,18.66,0,0,1,.4,2.5V35.9l-.1.1H66.9l-.1-.1V24a5.52,5.52,0,0,0-4-5.5,5.85,5.85,0,0,0-1.3-.2h-.8c-1.8,0-3.4,1-4.7,2.9a7.35,7.35,0,0,0-.7,3V35.9l-.1.1H49.1l-.1-.1h0V23.8a5.49,5.49,0,0,0-3.1-4.9,6,6,0,0,0-2.3-.6h-.5c-1.9,0-3.4,1-4.7,3a7.07,7.07,0,0,0-.7,3.8V35.9l-.1.1H31.4l-.1-.1h0V23.5c0-3.2,1.4-6.1,4.2-8.8A12.29,12.29,0,0,1,43,11.9Z"/><path class="cls-1" d="M87,12.11h.87A11.94,11.94,0,0,1,99.49,23.94V36l-.07.1H93.2L93.1,36v-1.3a11.89,11.89,0,0,1-5.54,1.37h-.22A12,12,0,0,1,75.51,24.51v-.87q0-4.49,3.86-8.43A11.9,11.9,0,0,1,87,12.11Zm.15,6.39c-1.86,0-3.41,1-4.67,3a6.28,6.28,0,0,0-.67,2.63,5.59,5.59,0,0,0,3.26,5.09,5.36,5.36,0,0,0,2.23.52h.27a5.4,5.4,0,0,0,4.87-3.05,5.2,5.2,0,0,0,.62-2.44v-.27a5.51,5.51,0,0,0-5.29-5.44Z"/><path class="cls-1" d="M113.7,11.5h7.5l.1.1v6.3l-.1.1h-6c-2.3,0-3.9.5-4.7,1.4a5.75,5.75,0,0,0-1.5,1.9,7.57,7.57,0,0,0-.6,3.5V35.9l-.1.1h-6.2l-.1-.1h0V23.3c0-3,1.3-5.9,3.9-8.6A12.5,12.5,0,0,1,113.7,11.5Z"/><path class="cls-1" d="M123.6,0h6.1l.1.1V12h7.5l.1.1v6.2l-.1.1h-7.5V23c0,2,.3,3.4,1,4.2a5.83,5.83,0,0,0,5.1,2.5h1.4l.1.1h0v6.1l-.1.1H135a11.62,11.62,0,0,1-7.9-3.4,11.75,11.75,0,0,1-3.6-8.2L123.6,0Z"/><path class="cls-2" d="M167.8,12h6.1l.1.1V23c0,2.1.4,3.6,1.2,4.4a5.45,5.45,0,0,0,4.3,2.1h.3c2.2,0,3.9-1.1,5.1-3.4a7.79,7.79,0,0,0,.4-2.1V12l.1-.1h6.2l.1.1V23.9q0,6.3-5.7,10.2a12,12,0,0,1-6.1,1.8h-.3a11.71,11.71,0,0,1-9.5-4.9,12,12,0,0,1-2.3-6.6V12Z"/><path class="cls-2" d="M205.8,10.4h.9a11.93,11.93,0,0,1,11.6,11.8v.2a11.94,11.94,0,0,1-5.4,10,11.67,11.67,0,0,1-6.6,2h-.2a11.82,11.82,0,0,1-5.5-1.4V46.3l-.1.1h-6.2l-.1-.1h0V22q0-4.5,3.9-8.4A11.54,11.54,0,0,1,205.8,10.4Zm.4,6.4H206c-1.9,0-3.4,1-4.7,3a7.67,7.67,0,0,0-.7,2.7,5.59,5.59,0,0,0,3.3,5.1,5.93,5.93,0,0,0,2.3.5h.3a5.38,5.38,0,0,0,4.9-3.1,5.33,5.33,0,0,0,.6-2.4v-.3a5.49,5.49,0,0,0-3.1-4.9,9,9,0,0,0-2.2-.6h-.5Z"/><path class="cls-2" d="M232.2,10.4h.9a11.93,11.93,0,0,1,11.6,11.8v.2a11.94,11.94,0,0,1-5.4,10,11.67,11.67,0,0,1-6.6,2h-.2A11.82,11.82,0,0,1,227,33V46.3l-.1.1h-6.2l-.1-.1h0V22q0-4.5,3.9-8.4A11.54,11.54,0,0,1,232.2,10.4Zm.4,6.4h-.2c-1.9,0-3.4,1-4.7,3a7.67,7.67,0,0,0-.7,2.7,5.59,5.59,0,0,0,3.3,5.1,5.93,5.93,0,0,0,2.3.5h.3a5.38,5.38,0,0,0,4.9-3.1,5.33,5.33,0,0,0,.6-2.4v-.3a5.49,5.49,0,0,0-3.1-4.9,9,9,0,0,0-2.2-.6h-.5Z"/><path class="cls-3" d="M206.3,14.1a7.9,7.9,0,1,1-7.9,7.9A7.85,7.85,0,0,1,206.3,14.1Z"/><path class="cls-1" d="M206,16.9a4.53,4.53,0,0,0-1.6.3,1.78,1.78,0,1,1-.7,3.5,1.71,1.71,0,0,1-1.4-1.3,3.89,3.89,0,1,0,5-2.3A5.07,5.07,0,0,0,206,16.9Z"/><path class="cls-3" d="M232.4,14.1a7.9,7.9,0,1,1-7.9,7.9A7.85,7.85,0,0,1,232.4,14.1Z"/><path class="cls-1" d="M232.2,16.9a4.53,4.53,0,0,0-1.6.3,1.78,1.78,0,1,1-.7,3.5,1.71,1.71,0,0,1-1.4-1.3,3.89,3.89,0,1,0,5-2.3A5.85,5.85,0,0,0,232.2,16.9Z"/><path class="cls-2" d="M148.8,17.7h13.6V11.9H148.8a7.4,7.4,0,0,0,0,14.8h9a1.6,1.6,0,0,1,0,3.2H141.4v5.8h16.4a7.35,7.35,0,0,0,.1-14.7h-9a1.58,1.58,0,0,1-1.6-1.6A1.48,1.48,0,0,1,148.8,17.7Z"/></g></g></svg>